<svg viewBox="0 0 16 16" xmlns="http://www.w3.org/2000/svg" fill="#ff0000" stroke="#ff0000"><g id="SVGRepo_bgCarrier" stroke-width="0"></g><g id="SVGRepo_tracerCarrier" stroke-linecap="round" stroke-linejoin="round"></g><g id="SVGRepo_iconCarrier"> <path fill-rule="evenodd" clip-rule="evenodd" d="M4 7a3 3 0 100-6 3 3 0 000 6zm0-2a1 1 0 100-2 1 1 0 000 2zm0 10a3 3 0 100-6 3 3 0 000 6zm0-2a1 1 0 100-2 1 1 0 000 2z" fill="#000000"></path> <path d="M11 11a3 3 0 100-6 3 3 0 000 6z" fill="#000000"></path> </g></svg>